<mxfile host="app.diagrams.net" modified="2022-10-13T10:57:42.959Z" agent="5.0 (Windows NT 10.0; Win64; x64) AppleWebKit/537.36 (KHTML, like Gecko) Chrome/106.0.0.0 Safari/537.36 Edg/106.0.1370.37" etag="ApDW1KYthEPBAcvZasRR" version="20.4.0" type="github">
  <diagram id="SmmHT-76sTtbEDoEjSkX" name="Page-1">
    <mxGraphModel dx="4124" dy="2244" grid="1" gridSize="10" guides="1" tooltips="1" connect="1" arrows="1" fold="1" page="1" pageScale="1" pageWidth="1169" pageHeight="827" math="0" shadow="0">
      <root>
        <mxCell id="0" />
        <mxCell id="1" parent="0" />
        <mxCell id="51nqaLBbArFpjwlJXphi-8" style="edgeStyle=orthogonalEdgeStyle;rounded=0;orthogonalLoop=1;jettySize=auto;html=1;entryX=0;entryY=0.5;entryDx=0;entryDy=0;endArrow=oval;endFill=0;startArrow=oval;startFill=0;endSize=6;targetPerimeterSpacing=6;sourcePerimeterSpacing=2;startSize=6;fillColor=#0050ef;strokeColor=#001DBC;" parent="1" target="51nqaLBbArFpjwlJXphi-7" edge="1">
          <mxGeometry relative="1" as="geometry">
            <mxPoint x="230" y="130" as="sourcePoint" />
            <Array as="points">
              <mxPoint x="230" y="200" />
            </Array>
          </mxGeometry>
        </mxCell>
        <mxCell id="51nqaLBbArFpjwlJXphi-1" value="" style="aspect=fixed;perimeter=ellipsePerimeter;html=1;align=center;shadow=0;dashed=0;spacingTop=3;image;image=img/lib/active_directory/folder_open.svg;" parent="1" vertex="1">
          <mxGeometry x="174.4" y="20" width="101.2" height="110" as="geometry" />
        </mxCell>
        <mxCell id="51nqaLBbArFpjwlJXphi-4" value="Matrices" style="aspect=fixed;perimeter=ellipsePerimeter;html=1;align=center;shadow=0;dashed=0;spacingTop=3;image;image=img/lib/active_directory/folder_open.svg;fontSize=21;" parent="1" vertex="1">
          <mxGeometry x="110" y="960" width="64.4" height="70" as="geometry" />
        </mxCell>
        <mxCell id="51nqaLBbArFpjwlJXphi-6" value="Public Transport" style="aspect=fixed;perimeter=ellipsePerimeter;html=1;align=center;shadow=0;dashed=0;spacingTop=3;image;image=img/lib/active_directory/folder_open.svg;fontSize=21;" parent="1" vertex="1">
          <mxGeometry x="80" y="1300" width="64.4" height="70" as="geometry" />
        </mxCell>
        <mxCell id="51nqaLBbArFpjwlJXphi-7" value="Project_database.sqlite" style="image;html=1;image=img/lib/clip_art/computers/Database_128x128.png;fontSize=21;" parent="1" vertex="1">
          <mxGeometry x="280" y="160" width="80" height="80" as="geometry" />
        </mxCell>
        <mxCell id="51nqaLBbArFpjwlJXphi-9" style="edgeStyle=orthogonalEdgeStyle;rounded=0;orthogonalLoop=1;jettySize=auto;html=1;entryX=0;entryY=0.5;entryDx=0;entryDy=0;endArrow=oval;endFill=0;startArrow=oval;startFill=0;endSize=6;targetPerimeterSpacing=6;sourcePerimeterSpacing=2;startSize=6;fillColor=#0050ef;strokeColor=#001DBC;" parent="1" target="51nqaLBbArFpjwlJXphi-4" edge="1">
          <mxGeometry relative="1" as="geometry">
            <mxPoint x="230" y="130" as="sourcePoint" />
            <mxPoint x="219.4" y="520" as="targetPoint" />
            <Array as="points">
              <mxPoint x="230" y="200" />
              <mxPoint x="80" y="200" />
              <mxPoint x="80" y="995" />
            </Array>
          </mxGeometry>
        </mxCell>
        <mxCell id="51nqaLBbArFpjwlJXphi-10" style="edgeStyle=orthogonalEdgeStyle;rounded=0;orthogonalLoop=1;jettySize=auto;html=1;entryX=0;entryY=0.5;entryDx=0;entryDy=0;endArrow=oval;endFill=0;startArrow=oval;startFill=0;endSize=6;targetPerimeterSpacing=6;sourcePerimeterSpacing=2;startSize=6;fillColor=#0050ef;strokeColor=#001DBC;" parent="1" target="51nqaLBbArFpjwlJXphi-6" edge="1">
          <mxGeometry relative="1" as="geometry">
            <mxPoint x="230" y="130" as="sourcePoint" />
            <mxPoint x="289.99999999998954" y="455" as="targetPoint" />
            <Array as="points">
              <mxPoint x="230" y="200" />
              <mxPoint x="80" y="200" />
              <mxPoint x="80" y="955" />
            </Array>
          </mxGeometry>
        </mxCell>
        <mxCell id="51nqaLBbArFpjwlJXphi-11" value="" style="shape=image;html=1;verticalAlign=top;verticalLabelPosition=bottom;labelBackgroundColor=#ffffff;imageAspect=0;aspect=fixed;image=https://cdn2.iconfinder.com/data/icons/competitive-strategy-and-corporate-training/512/740_Abstract_aggregation_cube_dimensional_matrix_Business_Management-128.png;fontSize=21;" parent="1" vertex="1">
          <mxGeometry x="244" y="960" width="38" height="38" as="geometry" />
        </mxCell>
        <mxCell id="51nqaLBbArFpjwlJXphi-13" value="" style="shape=image;html=1;verticalAlign=top;verticalLabelPosition=bottom;labelBackgroundColor=#ffffff;imageAspect=0;aspect=fixed;image=https://cdn2.iconfinder.com/data/icons/competitive-strategy-and-corporate-training/512/740_Abstract_aggregation_cube_dimensional_matrix_Business_Management-128.png;fontSize=21;" parent="1" vertex="1">
          <mxGeometry x="244" y="1120" width="38" height="38" as="geometry" />
        </mxCell>
        <mxCell id="51nqaLBbArFpjwlJXphi-14" value="" style="shape=image;html=1;verticalAlign=top;verticalLabelPosition=bottom;labelBackgroundColor=#ffffff;imageAspect=0;aspect=fixed;image=https://cdn2.iconfinder.com/data/icons/competitive-strategy-and-corporate-training/512/740_Abstract_aggregation_cube_dimensional_matrix_Business_Management-128.png;fontSize=21;" parent="1" vertex="1">
          <mxGeometry x="244" y="1178" width="38" height="38" as="geometry" />
        </mxCell>
        <mxCell id="51nqaLBbArFpjwlJXphi-15" value="Matrix 1" style="text;html=1;strokeColor=none;fillColor=none;align=center;verticalAlign=middle;whiteSpace=wrap;rounded=0;fontSize=14;" parent="1" vertex="1">
          <mxGeometry x="282" y="964" width="90" height="30" as="geometry" />
        </mxCell>
        <mxCell id="51nqaLBbArFpjwlJXphi-16" value="Matrix 2" style="text;html=1;strokeColor=none;fillColor=none;align=center;verticalAlign=middle;whiteSpace=wrap;rounded=0;fontSize=14;" parent="1" vertex="1">
          <mxGeometry x="282" y="1124" width="90" height="30" as="geometry" />
        </mxCell>
        <mxCell id="51nqaLBbArFpjwlJXphi-17" value="Matrix n" style="text;html=1;strokeColor=none;fillColor=none;align=center;verticalAlign=middle;whiteSpace=wrap;rounded=0;fontSize=14;" parent="1" vertex="1">
          <mxGeometry x="282" y="1182" width="90" height="30" as="geometry" />
        </mxCell>
        <mxCell id="51nqaLBbArFpjwlJXphi-18" value="..." style="text;html=1;strokeColor=none;fillColor=none;align=center;verticalAlign=middle;whiteSpace=wrap;rounded=0;fontSize=16;fontStyle=1" parent="1" vertex="1">
          <mxGeometry x="238" y="1148" width="50" height="30" as="geometry" />
        </mxCell>
        <mxCell id="51nqaLBbArFpjwlJXphi-20" style="edgeStyle=orthogonalEdgeStyle;rounded=0;orthogonalLoop=1;jettySize=auto;html=1;entryX=0;entryY=0.5;entryDx=0;entryDy=0;endArrow=oval;endFill=0;startArrow=oval;startFill=0;endSize=6;targetPerimeterSpacing=6;sourcePerimeterSpacing=2;startSize=6;fillColor=#0050ef;strokeColor=#001DBC;" parent="1" target="51nqaLBbArFpjwlJXphi-11" edge="1">
          <mxGeometry relative="1" as="geometry">
            <mxPoint x="180" y="1000" as="sourcePoint" />
            <mxPoint x="354.7" y="780" as="targetPoint" />
          </mxGeometry>
        </mxCell>
        <mxCell id="51nqaLBbArFpjwlJXphi-21" style="edgeStyle=orthogonalEdgeStyle;rounded=0;orthogonalLoop=1;jettySize=auto;html=1;entryX=0;entryY=0.5;entryDx=0;entryDy=0;endArrow=oval;endFill=0;startArrow=oval;startFill=0;endSize=6;targetPerimeterSpacing=6;sourcePerimeterSpacing=2;startSize=6;fillColor=#0050ef;strokeColor=#001DBC;" parent="1" target="51nqaLBbArFpjwlJXphi-13" edge="1">
          <mxGeometry relative="1" as="geometry">
            <mxPoint x="180" y="1000" as="sourcePoint" />
            <mxPoint x="261" y="939" as="targetPoint" />
          </mxGeometry>
        </mxCell>
        <mxCell id="51nqaLBbArFpjwlJXphi-22" style="edgeStyle=orthogonalEdgeStyle;rounded=0;orthogonalLoop=1;jettySize=auto;html=1;entryX=0;entryY=0.5;entryDx=0;entryDy=0;endArrow=oval;endFill=0;startArrow=oval;startFill=0;endSize=6;targetPerimeterSpacing=6;sourcePerimeterSpacing=2;startSize=6;fillColor=#0050ef;strokeColor=#001DBC;" parent="1" target="51nqaLBbArFpjwlJXphi-14" edge="1">
          <mxGeometry relative="1" as="geometry">
            <mxPoint x="180" y="1000" as="sourcePoint" />
            <mxPoint x="221" y="1067" as="targetPoint" />
          </mxGeometry>
        </mxCell>
        <mxCell id="51nqaLBbArFpjwlJXphi-23" value="" style="image;html=1;image=img/lib/clip_art/computers/Database_128x128.png" parent="1" vertex="1">
          <mxGeometry x="260" y="1290" width="50" height="40" as="geometry" />
        </mxCell>
        <mxCell id="51nqaLBbArFpjwlJXphi-24" value="" style="image;html=1;image=img/lib/clip_art/computers/Database_128x128.png" parent="1" vertex="1">
          <mxGeometry x="260" y="1500" width="50" height="40" as="geometry" />
        </mxCell>
        <mxCell id="51nqaLBbArFpjwlJXphi-25" value="" style="image;html=1;image=img/lib/clip_art/computers/Database_128x128.png" parent="1" vertex="1">
          <mxGeometry x="260" y="1570" width="50" height="40" as="geometry" />
        </mxCell>
        <mxCell id="51nqaLBbArFpjwlJXphi-26" style="edgeStyle=orthogonalEdgeStyle;rounded=0;orthogonalLoop=1;jettySize=auto;html=1;entryX=0;entryY=0.5;entryDx=0;entryDy=0;endArrow=oval;endFill=0;startArrow=oval;startFill=0;endSize=6;targetPerimeterSpacing=6;sourcePerimeterSpacing=2;startSize=6;fillColor=#0050ef;strokeColor=#001DBC;" parent="1" source="51nqaLBbArFpjwlJXphi-6" target="51nqaLBbArFpjwlJXphi-25" edge="1">
          <mxGeometry relative="1" as="geometry">
            <mxPoint x="150" y="1240" as="sourcePoint" />
            <mxPoint x="511" y="1349" as="targetPoint" />
          </mxGeometry>
        </mxCell>
        <mxCell id="51nqaLBbArFpjwlJXphi-27" style="edgeStyle=orthogonalEdgeStyle;rounded=0;orthogonalLoop=1;jettySize=auto;html=1;entryX=0;entryY=0.5;entryDx=0;entryDy=0;endArrow=oval;endFill=0;startArrow=oval;startFill=0;endSize=6;targetPerimeterSpacing=6;sourcePerimeterSpacing=2;startSize=6;fillColor=#0050ef;strokeColor=#001DBC;" parent="1" source="51nqaLBbArFpjwlJXphi-6" target="51nqaLBbArFpjwlJXphi-24" edge="1">
          <mxGeometry relative="1" as="geometry">
            <mxPoint x="170" y="1250" as="sourcePoint" />
            <mxPoint x="521" y="1359" as="targetPoint" />
          </mxGeometry>
        </mxCell>
        <mxCell id="51nqaLBbArFpjwlJXphi-28" style="edgeStyle=orthogonalEdgeStyle;rounded=0;orthogonalLoop=1;jettySize=auto;html=1;entryX=0;entryY=0.5;entryDx=0;entryDy=0;endArrow=oval;endFill=0;startArrow=oval;startFill=0;endSize=6;targetPerimeterSpacing=6;sourcePerimeterSpacing=2;startSize=6;fillColor=#0050ef;strokeColor=#001DBC;" parent="1" source="51nqaLBbArFpjwlJXphi-6" target="51nqaLBbArFpjwlJXphi-23" edge="1">
          <mxGeometry relative="1" as="geometry">
            <mxPoint x="160" y="1230" as="sourcePoint" />
            <mxPoint x="531" y="1369" as="targetPoint" />
          </mxGeometry>
        </mxCell>
        <mxCell id="51nqaLBbArFpjwlJXphi-29" value="Route System 1" style="text;html=1;strokeColor=none;fillColor=none;align=center;verticalAlign=middle;whiteSpace=wrap;rounded=0;fontSize=14;" parent="1" vertex="1">
          <mxGeometry x="310" y="1295" width="130" height="30" as="geometry" />
        </mxCell>
        <mxCell id="51nqaLBbArFpjwlJXphi-30" value="Route System 2" style="text;html=1;strokeColor=none;fillColor=none;align=center;verticalAlign=middle;whiteSpace=wrap;rounded=0;fontSize=14;" parent="1" vertex="1">
          <mxGeometry x="310" y="1500" width="130" height="30" as="geometry" />
        </mxCell>
        <mxCell id="51nqaLBbArFpjwlJXphi-31" value="Route System n" style="text;html=1;strokeColor=none;fillColor=none;align=center;verticalAlign=middle;whiteSpace=wrap;rounded=0;fontSize=14;" parent="1" vertex="1">
          <mxGeometry x="310" y="1575" width="130" height="30" as="geometry" />
        </mxCell>
        <mxCell id="51nqaLBbArFpjwlJXphi-32" value="..." style="text;html=1;strokeColor=none;fillColor=none;align=center;verticalAlign=middle;whiteSpace=wrap;rounded=0;fontSize=16;fontStyle=1" parent="1" vertex="1">
          <mxGeometry x="260" y="1532" width="50" height="30" as="geometry" />
        </mxCell>
        <mxCell id="51nqaLBbArFpjwlJXphi-33" value="Demand" style="aspect=fixed;perimeter=ellipsePerimeter;html=1;align=center;shadow=0;dashed=0;spacingTop=3;image;image=img/lib/active_directory/folder_open.svg;fontSize=21;" parent="1" vertex="1">
          <mxGeometry x="110" y="560" width="64.4" height="70" as="geometry" />
        </mxCell>
        <mxCell id="51nqaLBbArFpjwlJXphi-34" style="edgeStyle=orthogonalEdgeStyle;rounded=0;orthogonalLoop=1;jettySize=auto;html=1;entryX=0;entryY=0.5;entryDx=0;entryDy=0;endArrow=oval;endFill=0;startArrow=oval;startFill=0;endSize=6;targetPerimeterSpacing=6;sourcePerimeterSpacing=2;startSize=6;fillColor=#0050ef;strokeColor=#001DBC;" parent="1" target="51nqaLBbArFpjwlJXphi-33" edge="1">
          <mxGeometry relative="1" as="geometry">
            <mxPoint x="230" y="130" as="sourcePoint" />
            <mxPoint x="119.99999999998954" y="765" as="targetPoint" />
            <Array as="points">
              <mxPoint x="230" y="200" />
              <mxPoint x="80" y="200" />
              <mxPoint x="80" y="595" />
            </Array>
          </mxGeometry>
        </mxCell>
        <mxCell id="51nqaLBbArFpjwlJXphi-35" value="AequilibraE&lt;br style=&quot;font-size: 26px;&quot;&gt;Project" style="text;html=1;strokeColor=none;fillColor=none;align=center;verticalAlign=middle;whiteSpace=wrap;rounded=0;fontSize=26;fontStyle=1" parent="1" vertex="1">
          <mxGeometry x="70" y="50" width="60" height="30" as="geometry" />
        </mxCell>
        <mxCell id="51nqaLBbArFpjwlJXphi-37" value="" style="image;html=1;image=img/lib/clip_art/computers/Database_128x128.png" parent="1" vertex="1">
          <mxGeometry x="245" y="550" width="50" height="40" as="geometry" />
        </mxCell>
        <mxCell id="51nqaLBbArFpjwlJXphi-38" value="Synthetic Population" style="text;html=1;strokeColor=none;fillColor=none;align=center;verticalAlign=middle;whiteSpace=wrap;rounded=0;fontSize=14;" parent="1" vertex="1">
          <mxGeometry x="310" y="555" width="130" height="30" as="geometry" />
        </mxCell>
        <mxCell id="51nqaLBbArFpjwlJXphi-39" value="" style="image;html=1;image=img/lib/clip_art/computers/Database_128x128.png" parent="1" vertex="1">
          <mxGeometry x="245" y="690" width="50" height="40" as="geometry" />
        </mxCell>
        <mxCell id="51nqaLBbArFpjwlJXphi-40" value="zonal data" style="text;html=1;strokeColor=none;fillColor=none;align=center;verticalAlign=middle;whiteSpace=wrap;rounded=0;fontSize=14;" parent="1" vertex="1">
          <mxGeometry x="310" y="695" width="130" height="30" as="geometry" />
        </mxCell>
        <mxCell id="51nqaLBbArFpjwlJXphi-41" value="" style="image;html=1;image=img/lib/clip_art/computers/Database_128x128.png" parent="1" vertex="1">
          <mxGeometry x="245" y="800" width="50" height="40" as="geometry" />
        </mxCell>
        <mxCell id="51nqaLBbArFpjwlJXphi-42" value="Model Parameters" style="text;html=1;strokeColor=none;fillColor=none;align=center;verticalAlign=middle;whiteSpace=wrap;rounded=0;fontSize=14;" parent="1" vertex="1">
          <mxGeometry x="310" y="805" width="130" height="30" as="geometry" />
        </mxCell>
        <mxCell id="51nqaLBbArFpjwlJXphi-43" style="edgeStyle=orthogonalEdgeStyle;rounded=0;orthogonalLoop=1;jettySize=auto;html=1;entryX=0;entryY=0.5;entryDx=0;entryDy=0;endArrow=oval;endFill=0;startArrow=oval;startFill=0;endSize=6;targetPerimeterSpacing=6;sourcePerimeterSpacing=2;startSize=6;fillColor=#0050ef;strokeColor=#001DBC;" parent="1" target="51nqaLBbArFpjwlJXphi-37" edge="1">
          <mxGeometry relative="1" as="geometry">
            <mxPoint x="180" y="600" as="sourcePoint" />
            <mxPoint x="264" y="740" as="targetPoint" />
          </mxGeometry>
        </mxCell>
        <mxCell id="51nqaLBbArFpjwlJXphi-44" style="edgeStyle=orthogonalEdgeStyle;rounded=0;orthogonalLoop=1;jettySize=auto;html=1;entryX=0;entryY=0.5;entryDx=0;entryDy=0;endArrow=oval;endFill=0;startArrow=oval;startFill=0;endSize=6;targetPerimeterSpacing=6;sourcePerimeterSpacing=2;startSize=6;fillColor=#0050ef;strokeColor=#001DBC;" parent="1" target="51nqaLBbArFpjwlJXphi-39" edge="1">
          <mxGeometry relative="1" as="geometry">
            <mxPoint x="180" y="600" as="sourcePoint" />
            <mxPoint x="255" y="580" as="targetPoint" />
          </mxGeometry>
        </mxCell>
        <mxCell id="51nqaLBbArFpjwlJXphi-45" style="edgeStyle=orthogonalEdgeStyle;rounded=0;orthogonalLoop=1;jettySize=auto;html=1;entryX=0;entryY=0.5;entryDx=0;entryDy=0;endArrow=oval;endFill=0;startArrow=oval;startFill=0;endSize=6;targetPerimeterSpacing=6;sourcePerimeterSpacing=2;startSize=6;fillColor=#0050ef;strokeColor=#001DBC;" parent="1" target="51nqaLBbArFpjwlJXphi-41" edge="1">
          <mxGeometry relative="1" as="geometry">
            <mxPoint x="180" y="600" as="sourcePoint" />
            <mxPoint x="255" y="640" as="targetPoint" />
          </mxGeometry>
        </mxCell>
        <mxCell id="51nqaLBbArFpjwlJXphi-72" value="Tables" style="swimlane;fontStyle=0;childLayout=stackLayout;horizontal=1;startSize=30;horizontalStack=0;resizeParent=1;resizeParentMax=0;resizeLast=0;collapsible=1;marginBottom=0;fontSize=11;spacing=1;" parent="1" vertex="1">
          <mxGeometry x="450" y="570" width="110" height="105" as="geometry" />
        </mxCell>
        <mxCell id="51nqaLBbArFpjwlJXphi-73" value="Population year 1" style="text;strokeColor=none;fillColor=none;align=left;verticalAlign=middle;spacingLeft=4;spacingRight=0;overflow=hidden;points=[[0,0.5],[1,0.5]];portConstraint=eastwest;rotatable=0;fontSize=11;spacing=0;" parent="51nqaLBbArFpjwlJXphi-72" vertex="1">
          <mxGeometry y="30" width="110" height="15" as="geometry" />
        </mxCell>
        <mxCell id="51nqaLBbArFpjwlJXphi-74" value="Households year 1" style="text;strokeColor=none;fillColor=none;align=left;verticalAlign=middle;spacingLeft=4;spacingRight=0;overflow=hidden;points=[[0,0.5],[1,0.5]];portConstraint=eastwest;rotatable=0;fontSize=11;spacing=0;" parent="51nqaLBbArFpjwlJXphi-72" vertex="1">
          <mxGeometry y="45" width="110" height="15" as="geometry" />
        </mxCell>
        <mxCell id="51nqaLBbArFpjwlJXphi-75" value="Population year 2" style="text;strokeColor=none;fillColor=none;align=left;verticalAlign=middle;spacingLeft=4;spacingRight=0;overflow=hidden;points=[[0,0.5],[1,0.5]];portConstraint=eastwest;rotatable=0;fontSize=11;spacing=0;" parent="51nqaLBbArFpjwlJXphi-72" vertex="1">
          <mxGeometry y="60" width="110" height="15" as="geometry" />
        </mxCell>
        <mxCell id="51nqaLBbArFpjwlJXphi-77" value="Households year 2" style="text;strokeColor=none;fillColor=none;align=left;verticalAlign=middle;spacingLeft=4;spacingRight=0;overflow=hidden;points=[[0,0.5],[1,0.5]];portConstraint=eastwest;rotatable=0;fontSize=11;spacing=0;" parent="51nqaLBbArFpjwlJXphi-72" vertex="1">
          <mxGeometry y="75" width="110" height="15" as="geometry" />
        </mxCell>
        <mxCell id="51nqaLBbArFpjwlJXphi-78" value="..." style="text;strokeColor=none;fillColor=none;align=left;verticalAlign=middle;spacingLeft=4;spacingRight=0;overflow=hidden;points=[[0,0.5],[1,0.5]];portConstraint=eastwest;rotatable=0;fontSize=11;spacing=0;" parent="51nqaLBbArFpjwlJXphi-72" vertex="1">
          <mxGeometry y="90" width="110" height="15" as="geometry" />
        </mxCell>
        <mxCell id="51nqaLBbArFpjwlJXphi-80" value="Tables" style="swimlane;fontStyle=0;childLayout=stackLayout;horizontal=1;startSize=30;horizontalStack=0;resizeParent=1;resizeParentMax=0;resizeLast=0;collapsible=1;marginBottom=0;fontSize=11;spacing=1;" parent="1" vertex="1">
          <mxGeometry x="450" y="690" width="110" height="75" as="geometry" />
        </mxCell>
        <mxCell id="51nqaLBbArFpjwlJXphi-81" value="zonal data year 1" style="text;strokeColor=none;fillColor=none;align=left;verticalAlign=middle;spacingLeft=4;spacingRight=0;overflow=hidden;points=[[0,0.5],[1,0.5]];portConstraint=eastwest;rotatable=0;fontSize=11;spacing=0;" parent="51nqaLBbArFpjwlJXphi-80" vertex="1">
          <mxGeometry y="30" width="110" height="15" as="geometry" />
        </mxCell>
        <mxCell id="51nqaLBbArFpjwlJXphi-82" value="zonal data year 2" style="text;strokeColor=none;fillColor=none;align=left;verticalAlign=middle;spacingLeft=4;spacingRight=0;overflow=hidden;points=[[0,0.5],[1,0.5]];portConstraint=eastwest;rotatable=0;fontSize=11;spacing=0;" parent="51nqaLBbArFpjwlJXphi-80" vertex="1">
          <mxGeometry y="45" width="110" height="15" as="geometry" />
        </mxCell>
        <mxCell id="51nqaLBbArFpjwlJXphi-85" value="..." style="text;strokeColor=none;fillColor=none;align=left;verticalAlign=middle;spacingLeft=4;spacingRight=0;overflow=hidden;points=[[0,0.5],[1,0.5]];portConstraint=eastwest;rotatable=0;fontSize=11;spacing=0;" parent="51nqaLBbArFpjwlJXphi-80" vertex="1">
          <mxGeometry y="60" width="110" height="15" as="geometry" />
        </mxCell>
        <mxCell id="MGznoc-pnZzUCpK5XDcc-1" value="AequilibraE Project" style="swimlane;fontStyle=0;childLayout=stackLayout;horizontal=1;startSize=22;horizontalStack=0;resizeParent=1;resizeParentMax=0;resizeLast=0;collapsible=1;marginBottom=0;align=center;fontSize=14;" parent="1" vertex="1">
          <mxGeometry x="88" y="2060" width="150" height="126" as="geometry" />
        </mxCell>
        <mxCell id="MGznoc-pnZzUCpK5XDcc-2" value="Project_database.sql" style="text;strokeColor=none;fillColor=none;spacingLeft=4;spacingRight=4;overflow=hidden;rotatable=0;points=[[0,0.5],[1,0.5]];portConstraint=eastwest;fontSize=12;" parent="MGznoc-pnZzUCpK5XDcc-1" vertex="1">
          <mxGeometry y="22" width="150" height="26" as="geometry" />
        </mxCell>
        <mxCell id="MGznoc-pnZzUCpK5XDcc-3" value="parameters.yml" style="text;strokeColor=none;fillColor=none;spacingLeft=4;spacingRight=4;overflow=hidden;rotatable=0;points=[[0,0.5],[1,0.5]];portConstraint=eastwest;fontSize=12;" parent="MGznoc-pnZzUCpK5XDcc-1" vertex="1">
          <mxGeometry y="48" width="150" height="26" as="geometry" />
        </mxCell>
        <mxCell id="MGznoc-pnZzUCpK5XDcc-4" value="Scenarios" style="text;strokeColor=#d6b656;fillColor=#fff2cc;spacingLeft=4;spacingRight=4;overflow=hidden;rotatable=0;points=[[0,0.5],[1,0.5]];portConstraint=eastwest;fontSize=12;" parent="MGznoc-pnZzUCpK5XDcc-1" vertex="1">
          <mxGeometry y="74" width="150" height="26" as="geometry" />
        </mxCell>
        <mxCell id="MGznoc-pnZzUCpK5XDcc-5" value="matrices" style="text;strokeColor=#d79b00;fillColor=#ffe6cc;spacingLeft=4;spacingRight=4;overflow=hidden;rotatable=0;points=[[0,0.5],[1,0.5]];portConstraint=eastwest;fontSize=12;" parent="MGznoc-pnZzUCpK5XDcc-1" vertex="1">
          <mxGeometry y="100" width="150" height="26" as="geometry" />
        </mxCell>
        <mxCell id="MGznoc-pnZzUCpK5XDcc-6" value="Project database" style="swimlane;fontStyle=0;childLayout=stackLayout;horizontal=1;startSize=22;horizontalStack=0;resizeParent=1;resizeParentMax=0;resizeLast=0;collapsible=1;marginBottom=0;align=center;fontSize=14;" parent="1" vertex="1">
          <mxGeometry x="790" y="390" width="150" height="256" as="geometry" />
        </mxCell>
        <mxCell id="MGznoc-pnZzUCpK5XDcc-7" value="links" style="text;strokeColor=none;fillColor=none;spacingLeft=4;spacingRight=4;overflow=hidden;rotatable=0;points=[[0,0.5],[1,0.5]];portConstraint=eastwest;fontSize=12;" parent="MGznoc-pnZzUCpK5XDcc-6" vertex="1">
          <mxGeometry y="22" width="150" height="26" as="geometry" />
        </mxCell>
        <mxCell id="MGznoc-pnZzUCpK5XDcc-8" value="nodes" style="text;strokeColor=none;fillColor=none;spacingLeft=4;spacingRight=4;overflow=hidden;rotatable=0;points=[[0,0.5],[1,0.5]];portConstraint=eastwest;fontSize=12;" parent="MGznoc-pnZzUCpK5XDcc-6" vertex="1">
          <mxGeometry y="48" width="150" height="26" as="geometry" />
        </mxCell>
        <mxCell id="MGznoc-pnZzUCpK5XDcc-9" value="Modes" style="text;strokeColor=none;fillColor=none;spacingLeft=4;spacingRight=4;overflow=hidden;rotatable=0;points=[[0,0.5],[1,0.5]];portConstraint=eastwest;fontSize=12;" parent="MGznoc-pnZzUCpK5XDcc-6" vertex="1">
          <mxGeometry y="74" width="150" height="26" as="geometry" />
        </mxCell>
        <mxCell id="MGznoc-pnZzUCpK5XDcc-10" value="link_types" style="text;strokeColor=none;fillColor=none;spacingLeft=4;spacingRight=4;overflow=hidden;rotatable=0;points=[[0,0.5],[1,0.5]];portConstraint=eastwest;fontSize=12;" parent="MGznoc-pnZzUCpK5XDcc-6" vertex="1">
          <mxGeometry y="100" width="150" height="26" as="geometry" />
        </mxCell>
        <mxCell id="MGznoc-pnZzUCpK5XDcc-11" value="matrices" style="text;strokeColor=none;fillColor=none;spacingLeft=4;spacingRight=4;overflow=hidden;rotatable=0;points=[[0,0.5],[1,0.5]];portConstraint=eastwest;fontSize=12;" parent="MGznoc-pnZzUCpK5XDcc-6" vertex="1">
          <mxGeometry y="126" width="150" height="26" as="geometry" />
        </mxCell>
        <mxCell id="MGznoc-pnZzUCpK5XDcc-12" value="link_vectors" style="text;strokeColor=none;fillColor=none;spacingLeft=4;spacingRight=4;overflow=hidden;rotatable=0;points=[[0,0.5],[1,0.5]];portConstraint=eastwest;fontSize=12;" parent="MGznoc-pnZzUCpK5XDcc-6" vertex="1">
          <mxGeometry y="152" width="150" height="26" as="geometry" />
        </mxCell>
        <mxCell id="MGznoc-pnZzUCpK5XDcc-13" value="zonal_data" style="text;strokeColor=none;fillColor=none;spacingLeft=4;spacingRight=4;overflow=hidden;rotatable=0;points=[[0,0.5],[1,0.5]];portConstraint=eastwest;fontSize=12;" parent="MGznoc-pnZzUCpK5XDcc-6" vertex="1">
          <mxGeometry y="178" width="150" height="26" as="geometry" />
        </mxCell>
        <mxCell id="MGznoc-pnZzUCpK5XDcc-14" value="project_info" style="text;strokeColor=none;fillColor=none;spacingLeft=4;spacingRight=4;overflow=hidden;rotatable=0;points=[[0,0.5],[1,0.5]];portConstraint=eastwest;fontSize=12;" parent="MGznoc-pnZzUCpK5XDcc-6" vertex="1">
          <mxGeometry y="204" width="150" height="26" as="geometry" />
        </mxCell>
        <mxCell id="MGznoc-pnZzUCpK5XDcc-15" value="field_metadata" style="text;strokeColor=none;fillColor=none;spacingLeft=4;spacingRight=4;overflow=hidden;rotatable=0;points=[[0,0.5],[1,0.5]];portConstraint=eastwest;fontSize=12;" parent="MGznoc-pnZzUCpK5XDcc-6" vertex="1">
          <mxGeometry y="230" width="150" height="26" as="geometry" />
        </mxCell>
        <mxCell id="eMc6hgrokqvifs7f22zR-1" value="Parameters.yml" style="verticalLabelPosition=bottom;html=1;verticalAlign=top;align=center;strokeColor=none;fillColor=#00BEF2;shape=mxgraph.azure.code_file;pointerEvents=1;fontSize=21;" vertex="1" parent="1">
          <mxGeometry x="160" y="364" width="47.5" height="50" as="geometry" />
        </mxCell>
        <mxCell id="eMc6hgrokqvifs7f22zR-3" style="edgeStyle=orthogonalEdgeStyle;rounded=0;orthogonalLoop=1;jettySize=auto;html=1;entryX=0;entryY=0.5;entryDx=0;entryDy=0;endArrow=oval;endFill=0;startArrow=oval;startFill=0;endSize=6;targetPerimeterSpacing=6;sourcePerimeterSpacing=2;startSize=6;fillColor=#0050ef;strokeColor=#001DBC;entryPerimeter=0;" edge="1" parent="1" target="eMc6hgrokqvifs7f22zR-1">
          <mxGeometry relative="1" as="geometry">
            <mxPoint x="230" y="130" as="sourcePoint" />
            <Array as="points">
              <mxPoint x="230" y="200" />
              <mxPoint x="80" y="200" />
              <mxPoint x="80" y="389" />
            </Array>
            <mxPoint x="290" y="210" as="targetPoint" />
          </mxGeometry>
        </mxCell>
      </root>
    </mxGraphModel>
  </diagram>
</mxfile>
